<?xml version="1.0" standalone="no"?>
<!DOCTYPE svg PUBLIC "-//W3C//DTD SVG 20010904//EN"
 "http://www.w3.org/TR/2001/REC-SVG-20010904/DTD/svg10.dtd">
<svg version="1.0" xmlns="http://www.w3.org/2000/svg"
 width="500.000000pt" height="500.000000pt" viewBox="0 0 500.000000 500.000000"
 preserveAspectRatio="xMidYMid meet">
<metadata>
Created by potrace 1.11, written by Peter Selinger 2001-2013
</metadata>
<g transform="translate(0.000000,500.000000) scale(0.100000,-0.100000)"
fill="#000000" stroke="none">
<path d="M4387 4255 c-39 -11 -243 -117 -454 -236 -21 -12 -72 -40 -113 -62
-41 -22 -79 -43 -85 -47 -5 -4 -39 -23 -75 -42 -36 -20 -132 -73 -215 -118
-82 -45 -184 -101 -225 -123 -41 -22 -88 -48 -104 -58 -20 -12 -35 -15 -51 -9
-12 5 -35 11 -51 14 -48 9 -102 22 -264 60 -184 44 -172 41 -235 56 -27 6 -86
19 -130 30 -44 10 -118 28 -165 39 -224 52 -273 64 -386 91 -66 16 -131 31
-145 34 -13 2 -94 21 -179 41 -85 20 -162 38 -170 40 -8 2 -75 18 -149 35 -74
17 -145 29 -158 25 -37 -9 -515 -274 -542 -300 -37 -36 -38 -105 -3 -138 19
-17 259 -114 767 -307 407 -156 750 -288 762 -294 22 -11 21 -12 -25 -36 -26
-14 -138 -76 -250 -137 -111 -62 -204 -113 -207 -113 -3 0 -22 -11 -43 -23
-20 -13 -76 -45 -125 -71 l-87 -47 -50 30 c-28 17 -57 31 -65 31 -7 0 -17 4
-20 10 -9 14 -188 68 -280 84 -78 13 -287 14 -350 1 -71 -15 -193 -48 -225
-62 -83 -35 -137 -64 -158 -83 -24 -23 -27 -37 -23 -98 1 -20 239 -260 846
-852 37 -37 60 -50 87 -54 39 -5 29 -9 943 494 28 15 187 103 355 195 168 93
330 182 360 198 30 17 116 64 190 105 74 41 164 90 200 109 36 20 79 44 95 53
17 10 55 31 85 47 49 27 492 271 1065 586 366 201 396 219 431 250 98 85 144
215 123 347 -21 134 -125 252 -263 299 -62 22 -174 25 -239 6z m223 -229 c72
-48 97 -152 54 -225 -21 -36 -56 -61 -169 -121 -44 -24 -129 -71 -190 -105
-60 -34 -150 -84 -200 -110 -49 -27 -106 -57 -125 -68 -88 -50 -253 -141 -365
-202 -38 -21 -110 -61 -160 -88 -49 -28 -108 -60 -130 -72 -105 -57 -187 -102
-265 -145 -47 -26 -110 -61 -140 -77 -30 -17 -143 -79 -250 -138 -107 -59
-265 -146 -350 -192 -170 -94 -621 -342 -685 -378 -44 -24 -92 -50 -265 -145
-63 -35 -128 -71 -145 -80 -16 -9 -56 -31 -88 -49 -32 -18 -62 -31 -67 -29 -5
2 -159 152 -344 335 l-336 332 33 10 c108 36 296 50 402 30 28 -5 61 -12 75
-14 71 -13 170 -55 269 -114 102 -61 113 -60 251 16 30 17 127 70 215 118 88
49 176 97 195 108 19 11 69 38 110 60 41 22 80 43 85 47 6 4 46 27 90 50 258
138 279 155 277 221 -2 70 13 63 -787 368 -413 158 -759 290 -769 294 -19 8
-19 8 0 21 10 7 54 32 96 55 43 23 91 49 107 58 32 19 6 24 611 -118 96 -22
182 -42 191 -44 9 -2 33 -8 55 -14 32 -8 227 -54 284 -66 8 -2 47 -11 85 -20
39 -9 77 -18 85 -20 8 -2 132 -31 275 -65 143 -34 267 -63 275 -65 8 -2 57
-13 108 -25 55 -13 104 -19 120 -15 15 4 70 30 122 59 52 29 120 67 150 83 30
17 123 67 205 113 83 45 173 95 200 110 210 115 266 145 305 167 188 105 305
167 336 178 46 15 115 3 164 -29z"/>
<path d="M4065 2389 c-257 -35 -481 -213 -578 -459 -23 -60 -28 -78 -42 -150
-7 -36 -7 -168 0 -215 30 -204 146 -389 315 -504 89 -60 171 -92 295 -115 92
-18 226 -5 335 31 117 38 257 128 284 182 22 43 12 91 -25 124 -30 28 -36 29
-93 23 -34 -4 -69 -8 -80 -10 -10 -1 -43 1 -73 6 -243 38 -383 312 -271 531
27 53 93 123 145 154 81 47 132 54 291 39 49 -5 55 -3 86 28 26 26 33 42 33
72 0 34 -7 46 -52 90 -62 60 -183 125 -286 153 -81 23 -204 31 -284 20z m101
-223 c-112 -70 -200 -176 -244 -295 -29 -82 -36 -126 -35 -224 3 -182 106
-367 256 -462 55 -35 59 -46 15 -40 -18 2 -51 6 -73 9 -158 18 -316 136 -388
291 -76 161 -64 354 31 501 94 145 251 235 424 241 l53 2 -39 -23z"/>
</g>
</svg>
